Coordinates
version=1
nRows=19
nColumns=33
inDegrees=yes

Units are S.I. units (second, meters, Newtons, ...)
Angles are in degrees.

endheader
time	ground_thorax_rot_x	ground_thorax_rot_y	ground_thorax_rot_z	ground_thorax_tx	ground_thorax_ty	ground_thorax_tz	clav_prot_r	clav_elev_r	scapula_abduction_r	scapula_elevation_r	scapula_upward_rot_r	scapula_winging_r	shoulder_elv_r	plane_of_elev_r	axial_rot_r	elbow_flexion_r	pro_sup_r	wrist_flex_r	wrist_dev_r	clav_prot_l	clav_elev_l	scapula_abduction_l	scapula_elevation_l	scapula_upward_rot_l	scapula_winging_l	shoulder_elv_l	plane_of_elev_l	axial_rot_l	elbow_flexion_l	pro_sup_l	wrist_flex_l	wrist_dev_l
      4.67000000	     39.36996470	      3.30289755	     14.82911525	    -70.39414955	    795.55470761	     -0.20466409	     16.30298561	     39.73172148	     40.35837392	     43.59636186	    -34.96334127	  -3320.14640145	  -6776.97109344	     30.73774039	     65.16805581	   3609.75921051	    382.98207245	     17.33370712	     10.14893507	      8.46503891	    -45.00000000	    -37.98932095	     45.00000000	    -38.39624105	   2248.55461317	  -3530.24326011	     19.48141196	    -45.61342333	   1806.64738811	     23.80155413	     10.60771674	    -19.68049160
      4.68000000	     39.30498439	      4.89607970	     16.77271281	    -75.91755930	    795.67286431	     -0.54588819	     16.08326973	     39.77217137	     39.11130993	     44.64188745	    -37.22601899	  -3319.58919445	  -6776.67189617	     30.84605400	     65.85826169	   3609.80526601	    383.12760522	     17.26622097	     10.08256293	      9.72412566	    -45.00000000	    -37.02731482	     45.00000000	    -41.62684784	   2248.63446359	  -3529.97584153	     19.10580383	    -47.20935834	   1806.65315222	     23.60792609	     10.09331827	    -19.50263645
      4.69000000	     39.25846246	      5.32686361	     17.50077282	    -81.52699834	    795.88102365	     -0.89939756	     16.05591879	     39.65185722	     38.54914980	     45.00000000	    -38.23991840	  -3319.48333791	  -6776.52943268	     30.80462399	     66.59612428	   3609.82809011	    383.31489696	     17.29572476	     10.06189406	      9.96260074	    -45.00000000	    -36.22045346	     45.00000000	    -43.39808341	   2248.82282503	  -3529.72227150	     19.08798169	    -47.65214482	   1806.63919202	     23.31325352	     10.18693565	    -19.52967449
      4.70000000	     39.08039917	      5.57409352	     18.09330371	    -87.20738940	    796.19028527	     -1.26528170	     16.00857267	     39.48317902	     38.28938028	     45.00000000	    -39.40683434	  -3319.66427137	  -6776.19893937	     30.79626019	     67.11788035	   3609.99685572	    383.50281320	     17.36701078	      9.99167137	      9.65753765	    -45.00000000	    -35.55700537	     45.00000000	    -44.84366307	   2249.13209087	  -3529.38544263	     19.00932722	    -48.11158609	   1806.63354872	     23.03333528	     10.28590043	    -19.50395675
      4.71000000	     38.95908264	      5.48641415	     18.17179634	    -92.92988487	    796.60800045	     -1.64514023	     15.87184098	     39.17738688	     37.93905110	     45.00000000	    -39.80109697	  -3319.76379054	  -6776.17890302	     30.73453258	     67.80054595	   3610.02426100	    383.80145561	     17.38470838	      9.98605696	      9.56228581	    -45.00000000	    -35.36794008	     45.00000000	    -45.00000000	   2249.60230146	  -3529.27378420	     18.74155082	    -48.88365641	   1806.67568925	     22.88837354	     10.36303089	    -19.53606840
      4.72000000	     38.83563876	      5.37685580	     18.24865007	    -98.67649238	    797.14112384	     -2.04160191	     15.79718253	     38.94216726	     37.76812999	     45.00000000	    -40.55444242	  -3319.76773649	  -6775.96723013	     30.61448878	     67.88603500	   3610.06306838	    384.10982276	     17.45983728	      9.94678396	      9.45300921	    -45.00000000	    -35.13299063	     45.00000000	    -45.00000000	   2250.03573101	  -3529.15039542	     18.39245324	    -49.52677393	   1806.66395446	     22.77533764	     10.67153880	    -19.60291714
      4.73000000	     38.63273469	      5.28265990	     18.37452626	   -104.41829043	    797.79129784	     -2.45617949	     15.83713499	     38.70485827	     37.50943885	     45.00000000	    -41.81204919	  -3319.75326443	  -6775.63995284	     30.86279451	     67.60627634	   3610.12683018	    384.49112650	     17.52545172	      9.82747902	      9.50152949	    -45.00000000	    -35.07207461	     45.00000000	    -45.00000000	   2250.69374331	  -3529.08205592	     18.15889539	    -50.25676138	   1806.68576899	     22.70585438	     10.97723463	    -19.69400401
      4.74000000	     38.51445312	      5.27482294	     18.46466386	   -110.13403072	    798.55920011	     -2.88784563	     15.61872277	     38.40491671	     37.16991533	     45.00000000	    -42.27701580	  -3319.94783243	  -6775.56572112	     30.81687733	     68.16058121	   3610.23047567	    385.03896151	     17.53730212	      9.74919992	      9.65664794	    -45.00000000	    -34.98274144	     45.00000000	    -45.00000000	   2251.12342435	  -3528.96846229	     17.73096721	    -51.36206608	   1806.70706059	     22.78196568	     10.85713523	    -19.66966601
      4.75000000	     38.37630208	      5.26609769	     18.55356806	   -115.79953535	    799.44305528	     -3.33481724	     15.49223928	     37.99335538	     36.74334509	     45.00000000	    -42.55720812	  -3320.09970296	  -6775.43731780	     30.75063214	     69.28319351	   3610.45293109	    385.66116134	     17.58987865	      9.74902492	      9.87316617	    -45.00000000	    -34.78919375	     45.00000000	    -45.00000000	   2251.50839722	  -3528.75733925	     17.27822296	    -52.44319056	   1806.77782759	     22.93664832	     10.62753249	    -19.66364896
      4.76000000	     38.20672278	      5.17624671	     18.60077903	   -121.39454790	    800.44188381	     -3.79291570	     15.42264199	     37.88173006	     36.57936545	     45.00000000	    -43.58187399	  -3320.15018937	  -6775.27493633	     30.85418087	     68.76435304	   3610.41705407	    386.26739837	     17.64190603	      9.61288680	      9.99782481	    -45.00000000	    -34.81654508	     45.00000000	    -45.00000000	   2252.18678973	  -3528.68022750	     17.10175296	    -53.37078198	   1806.86040743	     23.15447477	     10.87449629	    -19.78203119
      4.77000000	     38.09829819	      5.12499521	     18.65457561	   -126.89730582	    801.54915155	     -4.25654019	     15.30896049	     37.59079229	     36.30789680	     45.00000000	    -44.15824656	  -3320.26602784	  -6775.06275330	     30.85537768	     69.23659516	   3610.59683456	    386.99458511	     17.70953355	      9.53063716	     10.20587743	    -45.00000000	    -34.65124166	     45.00000000	    -45.00000000	   2252.65530536	  -3528.53912692	     16.76804414	    -54.39307074	   1806.93887614	     23.47186200	     10.80975953	    -19.83003110
      4.78000000	     37.94576080	      5.07542260	     18.69550797	   -132.29040964	    802.75822660	     -4.72437152	     15.22556449	     37.44879037	     36.02301762	     45.00000000	    -44.73765773	  -3320.33475235	  -6774.94485872	     30.83625229	     69.31820447	   3610.65306137	    387.73547158	     17.75299180	      9.37697029	     10.31085098	    -45.00000000	    -34.64347396	     45.00000000	    -45.00000000	   2253.22342088	  -3528.42277414	     16.52362471	    -55.31688065	   1807.01685235	     23.87900994	     10.97475317	    -19.96291559
      4.79000000	     37.80707843	      5.07415205	     18.79139926	   -137.54938367	    804.06241819	     -5.19282860	     15.19233779	     37.34141941	     35.71516124	     45.00000000	    -45.00000000	  -3320.36592604	  -6774.84712372	     30.67004912	     70.39857291	   3610.76070765	    388.53032529	     17.82337993	      9.24295172	     10.44770916	    -45.00000000	    -34.44282100	     45.00000000	    -45.00000000	   2253.69145922	  -3528.17719353	     16.17821056	    -56.22368430	   1807.15033500	     24.34781625	     11.13224714	    -20.13787775
      4.80000000	     37.80187067	      4.84611448	     18.48516226	   -142.65172171	    805.45848679	     -5.65856300	     14.99157080	     37.29134264	     35.47563265	     45.00000000	    -45.00000000	  -3320.71584269	  -6774.93662825	     30.71104658	     70.13415472	   3610.80845027	    389.25272920	     17.84252417	      9.11014989	     10.48828842	    -45.00000000	    -34.47981960	     45.00000000	    -45.00000000	   2254.17930783	  -3528.20960648	     16.17166548	    -57.18056037	   1807.23742362	     24.88652978	     11.04475180	    -20.20385801
      4.81000000	     37.74602803	      4.69986617	     18.33706126	   -147.58053316	    806.94655994	     -6.11478537	     14.83694789	     37.21341296	     35.20407842	     45.00000000	    -45.00000000	  -3320.86670598	  -6774.91977462	     30.61346771	     70.52684218	   3610.94029856	    390.00723861	     17.88414536	      8.98844930	     10.57772036	    -45.00000000	    -34.36958086	     45.00000000	    -45.00000000	   2254.57734726	  -3528.08495626	     15.98154706	    -58.03177554	   1807.32583626	     25.45876890	     10.99175282	    -20.30582614
      4.82000000	     37.68725446	      4.58685307	     18.19736519	   -152.31426541	    808.52097511	     -6.55880133	     14.68417472	     37.11668721	     34.96294929	     45.00000000	    -45.00000000	  -3321.01853047	  -6774.88889277	     30.47839032	     70.91775593	   3611.08537319	    390.69775964	     17.91097505	      8.84701409	     10.66097780	    -45.00000000	    -34.30103543	     45.00000000	    -45.00000000	   2254.96518824	  -3527.96123655	     15.77147312	    -58.88162511	   1807.44528941	     26.05446892	     10.92123122	    -20.41935530
      4.83000000	     37.59900997	      4.46600946	     18.05279278	   -156.83859968	    810.17908636	     -6.98600318	     14.55407096	     37.08017178	     34.68419595	     45.00000000	    -45.00000000	  -3321.10223734	  -6774.83693565	     30.38416488	     71.24148778	   3611.24980260	    391.33784741	     17.96470035	      8.74381298	     10.73653656	    -45.00000000	    -34.19947804	     45.00000000	    -45.00000000	   2255.32810760	  -3527.77732199	     15.57666445	    -59.62276219	   1807.52965054	     26.67929358	     10.83409426	    -20.52650462
      4.84000000	     37.48817957	      4.42913562	     17.93047912	   -161.14189465	    811.91123694	     -7.39593893	     14.45787797	     36.92702768	     34.48018304	     45.00000000	    -45.00000000	  -3321.20018265	  -6774.84929257	     30.21093757	     71.95774645	   3611.37506317	    391.91265106	     18.00628197	      8.61906108	     10.77767760	    -45.00000000	    -34.11653070	     45.00000000	    -45.00000000	   2255.66865297	  -3527.52512561	     15.34658424	    -60.40610085	   1807.73538414	     27.28443098	     10.83201639	    -20.70999729
      4.85000000	     37.43925330	      4.33133350	     17.76294656	   -165.20928842	    813.70428738	     -7.78868378	     14.34216310	     36.79429754	     34.29449007	     45.00000000	    -45.00000000	  -3321.42242933	  -6774.84307304	     30.19537365	     72.14734791	   3611.54176569	    392.37639884	     18.03130607	      8.48840191	     10.85943118	    -45.00000000	    -34.06494352	     45.00000000	    -45.00000000	   2255.99262003	  -3527.37562186	     15.14747378	    -61.16711645	   1807.81332378	     27.89995095	     10.72096702	    -20.80558080
